<svg width="60" height="60" viewBox="0 0 60 60" fill="none" xmlns="http://www.w3.org/2000/svg">
<path d="M16.1028 7H18.2141V9.09297H20.1602V7H22.2715V13.334H20.1602V11.2227H18.2325V13.334H16.1028M25.0622 9.11133H23.1987V7H29.0461V9.11133H27.1735V13.334H25.0622M29.9733 7H32.1856L33.5442 9.23066L34.9028 7H37.1151V13.334H35.0038V10.1945L33.5258 12.4711L32.0479 10.1945V13.334H29.9733M38.1616 7H40.2729V11.241H43.2655V13.334H38.1616" fill="white"/>
<path fill-rule="evenodd" clip-rule="evenodd" d="M13 16.2347L16.0293 50.2363L29.6244 54L43.2746 50.2179L46.3039 16.2347H13ZM29.6335 23.1838H19.187L20.3253 35.7784H29.6335V35.7876H34.7742L34.2876 41.2036L29.6427 42.4496L24.9886 41.2036L24.6948 37.8713H20.5089L21.0964 44.4165L29.6519 46.8032V46.7797L38.1707 44.4165L39.3181 31.62L29.6519 31.62L29.6335 31.62L24.144 31.62L23.7585 27.3514L29.6335 27.3514L29.6519 27.3514L39.6945 27.3514L40.08 23.1838H29.6519H29.6335Z" fill="white"/>
</svg>
