<svg width="109" height="47" viewBox="0 0 109 47" fill="none" xmlns="http://www.w3.org/2000/svg">
    <path
        d="M34.7629 10.5265C33.3197 9.16823 31.6644 8.10709 29.7968 7.30063C27.6745 6.40927 25.4249 5.98482 23.1328 5.98482C20.7983 5.98482 18.5911 6.40927 16.4689 7.30063C14.4315 8.19198 12.6063 9.4229 10.9934 10.9934C9.4229 12.5639 8.19198 14.389 7.30063 16.4264C6.40927 18.5911 5.98482 20.7983 5.98482 23.0904C5.98482 25.4249 6.45172 27.632 7.30063 29.7967C8.19198 31.8341 9.38046 33.6593 10.9934 35.2298C12.5639 36.8003 14.4315 38.0736 16.4689 38.9225C18.6336 39.8139 20.8407 40.2383 23.1328 40.2383C25.4673 40.2383 27.6745 39.7714 29.7968 38.9225C31.6219 38.1161 33.2773 37.0549 34.7629 35.7391L39.0074 39.9837C36.97 41.8513 34.678 43.3369 32.1313 44.4404C29.2874 45.6289 26.2738 46.2656 23.1328 46.2656C20.0343 46.2656 16.9782 45.6289 14.1344 44.4404C11.3754 43.252 8.91356 41.5966 6.79128 39.4743C4.66901 37.3096 3.01363 34.8478 1.82516 32.0888C0.636682 29.2025 0 26.1889 0 23.0904C0 19.9494 0.636682 16.9358 1.82516 14.0919C3.01363 11.3754 4.62656 8.91356 6.74884 6.79128C8.91356 4.62656 11.3754 3.01363 14.0919 1.82516C16.9782 0.594237 19.9918 0 23.0904 0C26.2313 0 29.245 0.594237 32.0888 1.82516C34.678 2.88629 36.97 4.37189 38.965 6.28194L34.7629 10.5265Z"
        fill="#21C9BE" />
    <path
        d="M23.1753 34.678C21.7746 34.678 20.4163 34.4233 19.0581 33.914C17.6998 33.3622 16.4689 32.5982 15.4077 31.5795C14.3042 30.5183 13.4553 29.3299 12.861 27.9292C12.2668 26.6134 11.9272 25.2551 11.8848 23.812V23.4724C11.8848 22.0292 12.1394 20.671 12.6488 19.3552C13.2006 17.9545 13.9646 16.766 14.9408 15.7049C16.002 14.6013 17.2329 13.7099 18.5912 13.1581C19.9494 12.5214 21.3501 12.2243 22.8357 12.1819H23.0904C24.5335 12.1819 25.8918 12.4366 27.2076 12.9883C28.5658 13.4977 29.7968 14.3042 30.8579 15.3229C32.1313 16.5538 33.3197 18.5487 34.4658 21.3926L19.3976 27.9716C19.907 28.3536 20.4163 28.6507 20.9681 28.9054C21.6897 29.1601 22.3688 29.3299 23.0904 29.3299H23.3451C24.0666 29.2874 24.7882 29.1176 25.5098 28.8205C26.2313 28.481 26.868 28.0565 27.4198 27.5047C27.9292 26.9105 28.3112 26.2738 28.6083 25.6371L33.5744 27.5472C33.0651 28.9054 32.3011 30.0939 31.2824 31.1975C30.2637 32.3011 29.0327 33.15 27.632 33.7442C26.3162 34.3384 24.9155 34.678 23.5148 34.7205L23.1753 34.678ZM22.963 17.5725C22.2415 17.6149 21.5199 17.7422 20.7983 18.0818C20.0767 18.4214 19.3976 18.8458 18.8458 19.3976C18.3789 19.9919 17.9969 20.5861 17.6574 21.2652C17.4027 21.8595 17.3178 22.4537 17.2329 23.0904L26.8256 18.8883C26.3587 18.5063 25.8493 18.2091 25.2551 17.9545C24.5335 17.6574 23.7695 17.53 23.0055 17.53L22.963 17.5725Z"
        fill="#21C9BE" />
    <path
        d="M46.308 13.2833C47.6238 12.7315 48.9396 12.4768 50.3403 12.4768V17.4005C49.6187 17.4005 48.8972 17.5278 48.218 17.825C47.5814 18.0796 46.9871 18.5041 46.4778 19.0134C45.9684 19.5228 45.5864 20.0746 45.3317 20.7113C45.0771 21.1357 44.9073 21.7724 44.9073 22.6213V33.4874H39.9412V12.4344H44.9497V13.9624C45.4166 13.7078 45.8835 13.4531 46.308 13.2833Z"
        fill="#21C9BE" />
    <path
        d="M62.6919 33.5722C61.3761 33.5722 60.1028 33.3176 58.8294 32.8507C57.556 32.3413 56.41 31.6197 55.4338 30.6859C54.4151 29.7097 53.6086 28.5637 53.0144 27.2903C52.4626 26.0594 52.123 24.786 52.0806 23.4277V23.0882C52.0806 21.7299 52.3352 20.4566 52.8021 19.2256C53.3115 17.9098 54.0331 16.8062 54.9669 15.83C55.9431 14.7689 57.0891 13.9624 58.4049 13.4106C59.6783 12.8164 60.9941 12.5193 62.3948 12.4768H62.6071C63.9653 12.4768 65.2387 12.7315 66.4696 13.1984C67.743 13.7077 68.889 14.4293 69.8652 15.3631C71.0962 16.5091 72.1997 18.3767 73.2609 21.0508L59.1265 27.2478C59.5934 27.5874 60.1028 27.8845 60.6121 28.1392C61.2912 28.3939 61.9279 28.5212 62.6071 28.5212H62.8193C63.4984 28.4788 64.1775 28.309 64.8567 28.0543C65.5358 27.7572 66.13 27.3327 66.6394 26.7809C67.1063 26.2292 67.4883 25.6349 67.743 24.9982L72.412 26.7809C71.9026 28.0543 71.181 29.2003 70.2472 30.1766C69.271 31.1953 68.125 32.0017 66.8516 32.596C65.6207 33.1478 64.3049 33.4873 62.9891 33.5298H62.6919V33.5722ZM62.4797 17.4854C61.8006 17.5278 61.1215 17.6552 60.4423 17.9523C59.7632 18.2494 59.1265 18.6739 58.6172 19.2256C58.1503 19.7774 57.8107 20.3292 57.5136 21.0084C57.3014 21.5601 57.174 22.1119 57.1316 22.7062L66.13 18.7587C65.6631 18.4192 65.1962 18.1221 64.6869 17.8674C64.0078 17.6127 63.2862 17.4854 62.5646 17.4854H62.4797Z"
        fill="#21C9BE" />
    <path
        d="M82.3441 13.2833C83.6599 12.7315 84.9757 12.4768 86.3764 12.4768V17.4005C85.6549 17.4005 84.9333 17.5278 84.2542 17.825C83.6175 18.0796 83.0232 18.5041 82.5139 19.0134C82.0046 19.5228 81.6225 20.0746 81.3679 20.7113C81.1132 21.1357 80.9434 21.7724 80.9434 22.6213V33.4874H75.9773V12.4344H80.9434V13.9624C81.4528 13.7078 81.8772 13.4531 82.3441 13.2833Z"
        fill="#21C9BE" />
    <path
        d="M91.003 30.4737C88.9232 28.3939 87.8621 25.9321 87.8621 23.0033C87.8621 20.0746 88.9232 17.6127 91.003 15.5754C93.0829 13.4955 95.5447 12.4344 98.431 12.4344C101.36 12.4344 103.822 13.4531 105.901 15.5754C107.981 17.6127 109 20.0746 109 23.0033C109 25.8896 107.981 28.3939 105.901 30.4737C103.822 32.5536 101.36 33.5723 98.431 33.5723C95.5022 33.5723 93.0404 32.5111 91.003 30.4737ZM94.526 19.0983C93.4649 20.1595 92.9131 21.4753 92.9131 23.0033C92.9131 24.4889 93.4649 25.8047 94.526 26.9083C95.6296 27.9694 96.9454 28.5212 98.431 28.5212C99.959 28.5212 101.275 27.9694 102.336 26.9083C103.397 25.8047 103.949 24.4889 103.949 23.0033C103.949 21.4753 103.397 20.1595 102.336 19.0983C101.275 18.0372 99.959 17.4854 98.431 17.4854C96.903 17.4854 95.6296 18.0372 94.526 19.0983Z"
        fill="#21C9BE" />
</svg>
