<svg width="60" height="60" viewBox="0 0 60 60" fill="none" xmlns="http://www.w3.org/2000/svg">
<path d="M30.0001 34.5529C32.4302 34.5529 34.4001 32.5725 34.4001 30.1296C34.4001 27.6867 32.4302 25.7063 30.0001 25.7063C27.57 25.7063 25.6001 27.6867 25.6001 30.1296C25.6001 32.5725 27.57 34.5529 30.0001 34.5529Z" fill="white"/>
<path fill-rule="evenodd" clip-rule="evenodd" d="M14.8558 24.0032C10.9396 25.7748 9 28.017 9 30.1295C9 32.242 10.9396 34.4842 14.8558 36.2558C18.6801 37.9858 24.0334 39.0819 30 39.0819C35.9666 39.0819 41.3199 37.9858 45.1442 36.2558C49.0604 34.4842 51 32.242 51 30.1295C51 28.017 49.0604 25.7748 45.1442 24.0032C41.3199 22.2732 35.9666 21.1771 30 21.1771C24.0334 21.1771 18.6801 22.2732 14.8558 24.0032ZM14.0315 22.181C18.1697 20.309 23.8163 19.1771 30 19.1771C36.1837 19.1771 41.8303 20.309 45.9685 22.181C50.0147 24.0114 53 26.7454 53 30.1295C53 33.5136 50.0147 36.2476 45.9685 38.078C41.8303 39.95 36.1837 41.0819 30 41.0819C23.8163 41.0819 18.1697 39.95 14.0315 38.078C9.98527 36.2476 7 33.5136 7 30.1295C7 26.7454 9.98527 24.0114 14.0315 22.181Z" fill="white"/>
<path fill-rule="evenodd" clip-rule="evenodd" d="M27.6993 13.8804C24.2116 11.3543 21.3122 10.7905 19.4982 11.8434C17.6842 12.8962 16.7201 15.7024 17.1525 20.0019C17.5744 24.1978 19.3074 29.408 22.2914 34.6038C25.2754 39.7995 28.8973 43.9134 32.301 46.3787C35.7887 48.9049 38.6881 49.4686 40.5021 48.4158C42.3162 47.3629 43.2802 44.5568 42.8479 40.2572C42.4259 36.0613 40.6929 30.8511 37.7089 25.6554C34.725 20.4596 31.103 16.3457 27.6993 13.8804ZM28.8696 12.2543C32.5502 14.9202 36.3475 19.269 39.4387 24.6514C42.5298 30.0338 44.3776 35.5142 44.8338 40.0514C45.2796 44.4851 44.4193 48.4547 41.4982 50.1501C38.5771 51.8455 34.7273 50.6097 31.1307 48.0048C27.4502 45.3389 23.6528 40.9901 20.5616 35.6077C17.4705 30.2254 15.6228 24.7449 15.1665 20.2077C14.7207 15.774 15.5811 11.8044 18.5021 10.109C21.4232 8.41362 25.2731 9.64938 28.8696 12.2543Z" fill="white"/>
<path fill-rule="evenodd" clip-rule="evenodd" d="M42.8477 20.0018C43.28 15.7023 42.316 12.8962 40.5019 11.8433C38.6879 10.7905 35.7885 11.3542 32.3008 13.8804C28.8971 16.3457 25.2752 20.4596 22.2912 25.6553C19.3072 30.8511 17.5742 36.0613 17.1523 40.2572C16.7199 44.5567 17.684 47.3629 19.498 48.4157C21.312 49.4686 24.2114 48.9048 27.6992 46.3786C31.1029 43.9134 34.7248 39.7995 37.7087 34.6037C40.6927 29.408 42.4257 24.1978 42.8477 20.0018ZM44.8336 20.2076C44.3774 24.7449 42.5297 30.2253 39.4385 35.6077C36.3473 40.9901 32.55 45.3389 28.8694 48.0047C25.2729 50.6097 21.423 51.8455 18.5019 50.15C15.5809 48.4546 14.7205 44.4851 15.1663 40.0514C15.6226 35.5141 17.4703 30.0337 20.5614 24.6513C23.6526 19.269 27.45 14.9201 31.1305 12.2543C34.7271 9.64933 38.5769 8.41357 41.498 10.109C44.4191 11.8044 45.2794 15.774 44.8336 20.2076Z" fill="white"/>
</svg>
