<svg width="60" height="60" viewBox="0 0 60 60" fill="none" xmlns="http://www.w3.org/2000/svg">
<path d="M46.6096 33.1201C45.0048 33.1287 43.6101 33.5208 42.4422 34.1005C42.0137 33.2395 41.5852 32.4723 41.5095 31.9097C41.4255 31.2533 41.3247 30.8526 41.4255 30.0684C41.5263 29.2841 41.9801 28.1674 41.9717 28.0821C41.9633 27.9969 41.8708 27.5962 40.9466 27.5877C40.0224 27.5792 39.2242 27.7667 39.1318 28.0139C39.0393 28.2612 38.8629 28.8238 38.7453 29.4034C38.5856 30.2559 36.8968 33.2991 35.9306 34.8932C35.6197 34.2709 35.3508 33.7254 35.292 33.2906C35.208 32.6342 35.1072 32.2336 35.208 31.4493C35.3088 30.6651 35.7625 29.5484 35.7541 29.4631C35.7457 29.3779 35.6533 28.9772 34.7291 28.9687C33.8048 28.9602 33.0066 29.1477 32.9142 29.3949C32.8218 29.6421 32.721 30.2218 32.5277 30.7844C32.3345 31.347 30.0911 36.4277 29.503 37.7404C29.2005 38.4139 28.94 38.9509 28.7552 39.3175C28.7552 39.3175 28.7468 39.343 28.7216 39.3857C28.5619 39.7011 28.4695 39.8716 28.4695 39.8716C28.4695 39.8716 28.4695 39.8716 28.4695 39.8801C28.3435 40.1102 28.209 40.3234 28.1418 40.3234C28.0914 40.3234 27.999 39.7096 28.1586 38.8742C28.4947 37.1096 29.2929 34.3647 29.2845 34.2709C29.2845 34.2198 29.4358 33.7424 28.7636 33.4952C28.1082 33.248 27.873 33.6572 27.8142 33.6572C27.7553 33.6572 27.7133 33.8021 27.7133 33.8021C27.7133 33.8021 28.4443 30.7162 26.3186 30.7162C24.9911 30.7162 23.1594 32.191 22.252 33.5208C21.6806 33.8362 20.4623 34.5096 19.16 35.2342C18.6643 35.5155 18.1518 35.7968 17.6728 36.0611C17.6392 36.027 17.6056 35.9844 17.572 35.9503C15.001 33.1628 10.2454 31.1936 10.4471 27.4513C10.5227 26.0874 10.9848 22.5071 19.5801 18.1596C26.6547 14.6219 32.2841 15.6022 33.2587 17.776C34.6534 20.8789 30.2424 26.6415 22.9325 27.4769C20.1431 27.7923 18.6811 26.7012 18.3114 26.292C17.9249 25.8658 17.8661 25.8402 17.7233 25.9254C17.488 26.0533 17.6392 26.4369 17.7233 26.6585C17.9417 27.2382 18.8407 28.2612 20.3615 28.7641C21.7058 29.2074 24.9742 29.4546 28.9316 27.9031C33.3595 26.1641 36.8212 21.3307 35.8045 17.2816C34.7879 13.1727 28.0662 11.8173 21.7058 14.1104C17.9249 15.4744 13.8247 17.6225 10.8756 20.4186C7.37189 23.7432 6.81736 26.633 7.04421 27.8435C7.85921 32.1398 13.6987 34.9359 16.0344 37.0073C15.9168 37.0755 15.8076 37.1352 15.7152 37.1863C14.5473 37.7745 10.0942 40.1358 8.98509 42.6335C7.72478 45.4636 9.18674 47.4925 10.153 47.7653C13.1525 48.6092 16.2361 47.0918 17.8913 44.5856C19.5465 42.0794 19.3449 38.823 18.5803 37.3312C18.5719 37.3142 18.5635 37.2971 18.5467 37.2801C18.8491 37.1011 19.16 36.9135 19.4625 36.7345C20.059 36.3765 20.6472 36.044 21.1513 35.7713C20.8656 36.564 20.6556 37.5103 20.5548 38.8742C20.4287 40.4768 21.0757 42.5568 21.9243 43.3751C22.3024 43.7332 22.7477 43.7417 23.0334 43.7417C24.0248 43.7417 24.4701 42.9063 24.9658 41.9174C25.5708 40.707 26.1169 39.3004 26.1169 39.3004C26.1169 39.3004 25.4364 43.1024 27.2848 43.1024C27.957 43.1024 28.6376 42.2158 28.94 41.764C28.94 41.7725 28.94 41.7725 28.94 41.7725C28.94 41.7725 28.9568 41.747 28.9904 41.6873C29.0577 41.5765 29.0997 41.5083 29.0997 41.5083C29.0997 41.5083 29.0997 41.4997 29.0997 41.4912C29.3685 41.0138 29.9735 39.9312 30.8725 38.1326C32.032 35.8139 33.1495 32.9155 33.1495 32.9155C33.1495 32.9155 33.2503 33.6231 33.5948 34.7995C33.7964 35.49 34.2165 36.2486 34.5526 36.9817C34.2838 37.3653 34.1157 37.5785 34.1157 37.5785C34.1157 37.5785 34.1157 37.5785 34.1241 37.587C33.9057 37.8768 33.6704 38.1922 33.4099 38.4991C32.4941 39.6073 31.4018 40.8775 31.2506 41.244C31.0742 41.6788 31.1162 41.9942 31.4523 42.2499C31.6959 42.4374 32.1328 42.463 32.5781 42.4374C33.4015 42.3778 33.9813 42.1732 34.2669 42.0453C34.7123 41.8833 35.2332 41.6361 35.7205 41.2696C36.6195 40.5961 37.1657 39.6329 37.1153 38.3627C37.09 37.6637 36.8632 36.9647 36.5859 36.3083C36.6699 36.189 36.7456 36.0696 36.8296 35.9503C38.2495 33.8447 39.3502 31.5346 39.3502 31.5346C39.3502 31.5346 39.451 32.2421 39.7955 33.4185C39.9636 34.0152 40.308 34.6631 40.6105 35.2939C39.2746 36.3936 38.4512 37.6722 38.1571 38.5076C37.6278 40.0591 38.0395 40.7581 38.8209 40.9201C39.1738 40.9968 39.6779 40.8263 40.0476 40.6643C40.5181 40.5109 41.0726 40.2466 41.602 39.8545C42.501 39.1811 43.3664 38.2434 43.316 36.9732C43.2908 36.3936 43.1395 35.8224 42.9295 35.2683C44.0638 34.7909 45.5257 34.5267 47.391 34.7483C51.3904 35.2257 52.1802 37.7575 52.0289 38.823C51.8777 39.8886 51.0375 40.4683 50.7602 40.6473C50.483 40.8263 50.3905 40.886 50.4157 41.0138C50.4494 41.2014 50.5838 41.1929 50.819 41.1588C51.1467 41.0991 52.9196 40.2978 52.9952 38.3371C53.1212 35.8309 50.7686 33.0946 46.6096 33.1201ZM15.7572 43.6735C14.4296 45.1397 12.5812 45.6938 11.783 45.225C10.926 44.722 11.2621 42.5568 12.8921 41.0053C13.8835 40.0591 15.1606 39.1811 16.0092 38.644C16.2025 38.5247 16.4881 38.3542 16.8326 38.1411C16.8914 38.107 16.9251 38.0899 16.9251 38.0899C16.9923 38.0473 17.0595 38.0047 17.1267 37.9621C17.7233 40.1784 17.1519 42.1306 15.7572 43.6735ZM25.4196 37.0073C24.9574 38.1496 23.9912 41.0735 23.4031 40.9115C22.8989 40.7752 22.5881 38.5588 23.3022 36.368C23.6635 35.2683 24.4281 33.9555 24.8734 33.4441C25.596 32.6257 26.3942 32.3529 26.5874 32.6854C26.8311 33.1201 25.7052 36.2913 25.4196 37.0073ZM33.3931 40.8775C33.1999 40.9797 33.015 41.0479 32.931 40.9968C32.8722 40.9627 33.015 40.8263 33.015 40.8263C33.015 40.8263 34.0149 39.7352 34.4098 39.2407C34.6366 38.9509 34.9055 38.6099 35.1912 38.2263C35.1912 38.2604 35.1912 38.303 35.1912 38.3371C35.1912 39.6414 33.9477 40.5194 33.3931 40.8775ZM39.5435 39.4539C39.4006 39.3516 39.4258 39.0106 39.9047 37.945C40.0896 37.5273 40.5265 36.8283 41.2743 36.1549C41.3583 36.4276 41.4171 36.6919 41.4087 36.9391C41.4003 38.5844 40.2408 39.1981 39.5435 39.4539Z" fill="white"/>
</svg>
