<svg width="50" height="50" viewBox="0 0 50 50" fill="none" xmlns="http://www.w3.org/2000/svg">
<mask id="mask0_518_19" style="mask-type:alpha" maskUnits="userSpaceOnUse" x="0" y="0" width="50" height="50">
<rect x="0.5" y="0.5" width="49" height="49" fill="#D9D9D9" stroke="black"/>
</mask>
<g mask="url(#mask0_518_19)">
<path d="M40.6474 11.7943C39.1676 10.4015 37.4701 9.31339 35.555 8.4864C33.3787 7.57236 31.0718 7.13711 28.7214 7.13711C26.3275 7.13711 24.0642 7.57236 21.8879 8.4864C19.7987 9.40044 17.9271 10.6627 16.2731 12.2731C14.6627 13.8836 13.4004 15.7552 12.4864 17.8444C11.5724 20.0642 11.1371 22.3275 11.1371 24.6779C11.1371 27.0718 11.6159 29.3351 12.4864 31.555C13.4004 33.6442 14.6192 35.5158 16.2731 37.1262C17.8836 38.7367 19.7987 40.0424 21.8879 40.913C24.1077 41.827 26.3711 42.2622 28.7214 42.2622C31.1153 42.2622 33.3787 41.7835 35.555 40.913C37.4266 40.086 39.124 38.9978 40.6474 37.6485L45 42.0011C42.9108 43.9162 40.5604 45.4396 37.9489 46.5713C35.0326 47.79 31.9423 48.4429 28.7214 48.4429C25.5441 48.4429 22.4102 47.79 19.494 46.5713C16.6649 45.3526 14.1404 43.6551 11.9641 41.4788C9.78781 39.259 8.09032 36.7345 6.8716 33.9053C5.65288 30.9456 5 27.8553 5 24.6779C5 21.457 5.65288 18.3667 6.8716 15.4505C8.09032 12.6649 9.74429 10.1404 11.9206 7.96409C14.1404 5.74429 16.6649 4.09032 19.4505 2.8716C22.4102 1.60936 25.5005 1 28.6779 1C31.8988 1 34.9891 1.60936 37.9053 2.8716C40.5604 3.95974 42.9108 5.48313 44.9565 7.44179L40.6474 11.7943Z" fill="#21C9BE"/>
<path d="M28.7651 36.5604C27.3287 36.5604 25.9359 36.2992 24.5431 35.7769C23.1503 35.2111 21.888 34.4276 20.7999 33.383C19.6682 32.2949 18.7977 31.0762 18.1883 29.6398C17.579 28.2905 17.2308 26.8977 17.1873 25.4178V25.0696C17.1873 23.5898 17.4484 22.1969 17.9707 20.8476C18.5365 19.4113 19.32 18.1926 20.3211 17.1044C21.4092 15.9728 22.6715 15.0587 24.0643 14.4929C25.4571 13.84 26.8935 13.5353 28.4169 13.4918H28.678C30.1579 13.4918 31.5507 13.753 32.9 14.3188C34.2928 14.8411 35.555 15.6681 36.6432 16.7127C37.949 17.975 39.1677 20.0207 40.3429 22.9369L24.8913 29.6833C25.4136 30.0751 25.9359 30.3797 26.5017 30.6409C27.2417 30.9021 27.9381 31.0762 28.678 31.0762H28.9392C29.6791 31.0326 30.419 30.8585 31.159 30.5538C31.8989 30.2056 32.5518 29.7704 33.1176 29.2046C33.6399 28.5952 34.0317 27.9423 34.3363 27.2894L39.4288 29.2481C38.9065 30.6409 38.1231 31.8596 37.0784 32.9913C36.0338 34.1229 34.7716 34.9935 33.3352 35.6028C31.9859 36.2122 30.5496 36.5604 29.1133 36.6039L28.7651 36.5604ZM28.5474 19.0196C27.8075 19.0631 27.0676 19.1937 26.3276 19.5419C25.5877 19.8901 24.8913 20.3253 24.3255 20.8912C23.8467 21.5005 23.4549 22.1099 23.1067 22.8063C22.8456 23.4157 22.7585 24.025 22.6715 24.6779L32.5083 20.3689C32.0295 19.9771 31.5072 19.6725 30.8978 19.4113C30.1579 19.1066 29.3744 18.976 28.591 18.976L28.5474 19.0196Z" fill="#21C9BE"/>
</g>
</svg>
