<svg width="60" height="60" viewBox="0 0 60 60" fill="none" xmlns="http://www.w3.org/2000/svg">
<path d="M23.6406 12.2082V11.1442H25.1527H26.6648V9.07209V7H27.7288H28.7928V10.1361V13.2723H26.2167H23.6406V12.2082ZM29.8009 12.4322V11.5922H31.2009C31.971 11.5922 32.601 11.5637 32.601 11.5289C32.601 11.4941 31.971 10.7829 31.2009 9.94831L29.8009 8.43094V7.71547V7H32.713H35.6251V7.83659V8.67318L34.258 8.70462L32.8909 8.73607L34.314 10.2687L35.7371 11.8012V12.5368V13.2723H32.769H29.8009V12.4322Z" fill="white"/>
<path d="M22.7477 52.043L16.0867 50.178L14.6046 33.6013C13.7895 24.4841 13.1202 16.8356 13.1173 16.6046L13.1121 16.1846H29.6888H46.2655L46.2676 16.4366C46.2706 16.7885 43.3551 49.6771 43.2958 49.9614C43.2531 50.1654 42.4495 50.4137 36.4961 52.0621C32.7829 53.0903 29.6692 53.9262 29.5768 53.9197C29.4844 53.9132 26.4113 53.0687 22.7477 52.043ZM33.9313 45.5964C36.2339 44.9562 38.1506 44.3796 38.1905 44.3149C38.2304 44.2503 38.5055 41.4353 38.8018 38.0593C39.098 34.6834 39.3647 31.833 39.3944 31.7252C39.4453 31.54 39.0535 31.5292 32.2949 31.5292H25.1415L25.4461 28.3091C25.6136 26.538 25.7547 25.0844 25.7596 25.0788C25.7646 25.0732 26.8144 25.0397 28.0927 25.0043C30.1887 24.9464 34.511 25.1136 34.6556 25.2582C34.7096 25.3122 35.065 28.799 35.065 29.275C35.065 29.5097 35.0967 29.5131 37.2353 29.5131H39.4057L39.3545 29.0371C39.3264 28.7753 39.1425 26.7466 38.946 24.5289L38.5886 20.4968L30.2185 20.468C23.5596 20.4452 21.8482 20.4681 21.8475 20.58C21.8469 20.6574 21.7982 21.1492 21.7391 21.6728C21.5959 22.9399 20.5044 35.1825 20.5044 35.5206V35.7854H27.6265H34.7487L34.6852 36.2054C34.6503 36.4364 34.5395 37.6083 34.4391 38.8095C34.3388 40.0108 34.2243 41.0246 34.1848 41.0626C34.0804 41.1627 29.8906 42.2821 29.6293 42.2796C29.508 42.2784 28.4259 42.0084 27.2247 41.6796L25.0406 41.0817L24.9605 40.1416C24.9164 39.6246 24.8494 38.8865 24.8116 38.5015L24.7427 37.8015H22.6235H20.5044L20.5091 38.2215C20.5178 39.007 21.0272 44.2979 21.1012 44.3718C21.1867 44.4574 29.3261 46.7454 29.5768 46.7543C29.6692 46.7576 31.6287 46.2366 33.9313 45.5964Z" fill="white"/>
</svg>
