<svg width="44" height="44" viewBox="0 0 44 44" fill="none" xmlns="http://www.w3.org/2000/svg">
    <path fill-rule="evenodd" clip-rule="evenodd"
        d="M44 44H34.9594V28.6018C34.9594 24.38 33.3552 22.0208 30.0137 22.0208C26.3785 22.0208 24.4793 24.4759 24.4793 28.6018V44H15.7667V14.6667H24.4793V18.6179C24.4793 18.6179 27.099 13.7705 33.3237 13.7705C39.5456 13.7705 44 17.5699 44 25.4279V44ZM5.37253 10.8257C2.40482 10.8257 0 8.40202 0 5.41285C0 2.42369 2.40482 0 5.37253 0C8.34023 0 10.7436 2.42369 10.7436 5.41285C10.7436 8.40202 8.34023 10.8257 5.37253 10.8257ZM0.873698 44H9.95872V14.6667H0.873698V44Z"
        fill="white" />
</svg>
