<svg width="60" height="60" viewBox="0 0 60 60" fill="none" xmlns="http://www.w3.org/2000/svg">
<path d="M20.832 7H25.8781V9.11133H22.9422V11.2227H25.8781V13.334H20.832V7Z" fill="white"/>
<path d="M26.8875 7H31.9335V8.83594H28.9976V9.20312H31.9335V13.4258H26.8875V11.498H29.8233V11.1309H26.8875V7Z" fill="white"/>
<path d="M32.9426 7H37.9887V8.83594H35.0528V9.20312H37.9887V13.4258H32.9426V11.498H35.8785V11.1309H32.9426V7Z" fill="white"/>
<path fill-rule="evenodd" clip-rule="evenodd" d="M43.2477 50.2197L46.2795 16.2366H13L16.0286 50.225L29.6194 54L43.2477 50.2197ZM29.6252 23.1842H29.6252H29.6396H40.0618L39.3096 31.6214L39.208 32.7408L38.2289 43.7152L38.1663 44.4195L29.6398 46.7839V46.7847L29.6206 46.7901L21.0864 44.4196L20.5027 37.8744H22.4303H24.6849L24.9816 41.199L29.6215 42.4526L29.6252 42.4516V42.4511L34.2719 41.1962L34.7555 35.7899H29.6398V35.7901H20.3165L19.9431 31.6216H29.6252V31.6214H35.1168L35.4959 27.3528L29.6396 27.3528L29.6252 27.3528L19.5714 27.3528L19.1926 23.1842H29.6252Z" fill="white"/>
</svg>
